<svg width="22" height="27" viewBox="0 0 22 27" fill="none" xmlns="http://www.w3.org/2000/svg">
<path d="M10.9707 6.61481C12.1393 6.61481 13.6042 5.83217 14.4766 4.78864C15.2666 3.84294 15.8427 2.52222 15.8427 1.2015C15.8427 1.02215 15.8262 0.842791 15.7933 0.696045C14.493 0.74496 12.9294 1.56022 11.9912 2.65266C11.2505 3.48423 10.5757 4.78864 10.5757 6.12566C10.5757 6.32132 10.6086 6.51698 10.6251 6.5822C10.7074 6.59851 10.839 6.61481 10.9707 6.61481ZM6.85587 26.344C8.45243 26.344 9.16019 25.2842 11.1518 25.2842C13.1763 25.2842 13.6207 26.3114 15.3983 26.3114C17.143 26.3114 18.3116 24.7135 19.4144 23.1482C20.6488 21.3547 21.1591 19.5937 21.192 19.5122C21.0768 19.4796 17.7355 18.1262 17.7355 14.3272C17.7355 11.0335 20.369 9.54974 20.5172 9.43561C18.7725 6.95722 16.1225 6.892 15.3983 6.892C13.4396 6.892 11.8431 8.06597 10.839 8.06597C9.75272 8.06597 8.32076 6.95722 6.62544 6.95722C3.39941 6.95722 0.123989 9.59866 0.123989 14.588C0.123989 17.686 1.34198 20.9633 2.83979 23.083C4.12362 24.8766 5.24286 26.344 6.85587 26.344Z" fill="#000100"/>
</svg>
