<svg width="25" height="24" viewBox="0 0 25 24" fill="none" xmlns="http://www.w3.org/2000/svg">
<path d="M2.46666 24C1.98666 24 1.56666 23.8105 1.20666 23.4316C0.846656 23.0526 0.666656 22.6105 0.666656 22.1053V6.94737C0.666656 6.44211 0.846656 6 1.20666 5.62105C1.56666 5.24211 1.98666 5.05263 2.46666 5.05263H7.86666V1.89474C7.86666 1.38947 8.04666 0.947368 8.40666 0.568421C8.76666 0.189474 9.18666 0 9.66666 0H15.6667C16.1467 0 16.5667 0.189474 16.9267 0.568421C17.2867 0.947368 17.4667 1.38947 17.4667 1.89474V5.05263H22.8667C23.3467 5.05263 23.7667 5.24211 24.1267 5.62105C24.4867 6 24.6667 6.44211 24.6667 6.94737V22.1053C24.6667 22.6105 24.4867 23.0526 24.1267 23.4316C23.7667 23.8105 23.3467 24 22.8667 24H2.46666ZM2.46666 22.1053H22.8667V6.94737H2.46666V22.1053ZM9.66666 5.05263H15.6667V1.89474H9.66666V5.05263Z" fill="#E8DEF8"/>
</svg>
