<svg width="25" height="24" viewBox="0 0 25 24" fill="none" xmlns="http://www.w3.org/2000/svg">
<path d="M12.3334 11.5942C10.6834 11.5942 9.33337 11.0531 8.28337 9.97101C7.23337 8.88889 6.70837 7.49758 6.70837 5.7971C6.70837 4.09662 7.23337 2.70531 8.28337 1.62319C9.33337 0.541063 10.6834 0 12.3334 0C13.9834 0 15.3334 0.541063 16.3834 1.62319C17.4334 2.70531 17.9584 4.09662 17.9584 5.7971C17.9584 7.49758 17.4334 8.88889 16.3834 9.97101C15.3334 11.0531 13.9834 11.5942 12.3334 11.5942ZM0.333374 24V20.3671C0.333374 19.3881 0.570874 18.5507 1.04587 17.8551C1.52087 17.1594 2.13337 16.6312 2.88337 16.2705C4.55837 15.4976 6.16462 14.9179 7.70212 14.5314C9.23962 14.1449 10.7834 13.9517 12.3334 13.9517C13.8834 13.9517 15.4209 14.1514 16.9459 14.5507C18.4709 14.9501 20.0699 15.5258 21.7429 16.278C22.5254 16.642 23.1528 17.1697 23.625 17.8613C24.0973 18.5528 24.3334 19.3881 24.3334 20.3671V24H0.333374ZM2.58337 21.6812H22.0834V20.3671C22.0834 19.9549 21.9646 19.562 21.7271 19.1884C21.4896 18.8148 21.1959 18.5378 20.8459 18.3575C19.2459 17.5588 17.7834 17.0113 16.4584 16.715C15.1334 16.4187 13.7584 16.2705 12.3334 16.2705C10.9084 16.2705 9.52087 16.4187 8.17087 16.715C6.82087 17.0113 5.35837 17.5588 3.78337 18.3575C3.43337 18.5378 3.14587 18.8148 2.92087 19.1884C2.69587 19.562 2.58337 19.9549 2.58337 20.3671V21.6812ZM12.3334 9.27536C13.3084 9.27536 14.1146 8.94686 14.7521 8.28986C15.3896 7.63285 15.7084 6.80193 15.7084 5.7971C15.7084 4.79227 15.3896 3.96135 14.7521 3.30435C14.1146 2.64734 13.3084 2.31884 12.3334 2.31884C11.3584 2.31884 10.5521 2.64734 9.91462 3.30435C9.27712 3.96135 8.95837 4.79227 8.95837 5.7971C8.95837 6.80193 9.27712 7.63285 9.91462 8.28986C10.5521 8.94686 11.3584 9.27536 12.3334 9.27536Z" fill="#CAC4D0"/>
</svg>
