<svg width="26" height="27" viewBox="0 0 26 27" fill="none" xmlns="http://www.w3.org/2000/svg">
<path fill-rule="evenodd" clip-rule="evenodd" d="M25.3551 13.8115C25.3551 12.9022 25.2734 12.0278 25.1219 11.1884H13.044V16.149H19.9457C19.6484 17.752 18.7449 19.1102 17.3867 20.0195V23.2372H21.5312C23.9561 21.0046 25.3551 17.717 25.3551 13.8115Z" fill="#4285F4"/>
<path fill-rule="evenodd" clip-rule="evenodd" d="M13.044 26.344C16.5065 26.344 19.4094 25.1957 21.5312 23.2371L17.3867 20.0195C16.2384 20.7889 14.7694 21.2436 13.044 21.2436C9.70394 21.2436 6.87683 18.9877 5.8684 15.9566H1.58401V19.2792C3.69415 23.4703 8.03099 26.344 13.044 26.344Z" fill="#34A853"/>
<path fill-rule="evenodd" clip-rule="evenodd" d="M5.86839 15.9566C5.61191 15.1872 5.46619 14.3653 5.46619 13.52C5.46619 12.6748 5.61191 11.8529 5.86839 11.0835V7.76089H1.58401C0.715474 9.49214 0.220001 11.4507 0.220001 13.52C0.220001 15.5894 0.715474 17.5479 1.58401 19.2792L5.86839 15.9566Z" fill="#FBBC05"/>
<path fill-rule="evenodd" clip-rule="evenodd" d="M13.044 5.7965C14.9268 5.7965 16.6172 6.44353 17.9463 7.71427L21.6244 4.03612C19.4036 1.96679 16.5007 0.696045 13.044 0.696045C8.03099 0.696045 3.69415 3.56979 1.58401 7.76091L5.8684 11.0835C6.87683 8.05236 9.70394 5.7965 13.044 5.7965Z" fill="#EA4335"/>
</svg>
